<?xml version="1.0" standalone="no"?>
<!DOCTYPE svg PUBLIC "-//W3C//DTD SVG 20010904//EN"
 "http://www.w3.org/TR/2001/REC-SVG-20010904/DTD/svg10.dtd">
<svg version="1.0" xmlns="http://www.w3.org/2000/svg"
 width="289.000000pt" height="174.000000pt" viewBox="0 0 289.000000 174.000000"
 preserveAspectRatio="xMidYMid meet">

<g transform="translate(0.000000,174.000000) scale(0.100000,-0.100000)"
fill="#000000" stroke="none">
<path d="M1377 1277 l-68 -42 7 -285 c3 -157 9 -289 11 -293 3 -5 30 15 59 44
l54 53 55 -54 c30 -30 55 -50 55 -44 0 5 -20 30 -45 54 l-45 44 0 283 c0 156
-3 283 -7 282 -5 -1 -39 -20 -76 -42z"/>
<path d="M1525 1300 c-13 -5 -14 -9 -5 -9 8 0 24 4 35 9 13 5 14 9 5 9 -8 0
-24 -4 -35 -9z"/>
<path d="M1575 1290 c-16 -7 -14 -8 12 -7 18 1 33 5 33 10 0 9 -19 8 -45 -3z"/>
<path d="M1505 1240 c-13 -6 -15 -9 -5 -9 8 0 22 4 30 9 18 12 2 12 -25 0z"/>
<path d="M1555 1230 c-13 -5 -14 -9 -5 -9 8 0 24 4 35 9 13 5 14 9 5 9 -8 0
-24 -4 -35 -9z"/>
<path d="M1508 1183 c7 -3 16 -2 19 1 4 3 -2 6 -13 5 -11 0 -14 -3 -6 -6z"/>
<path d="M1535 1170 c-13 -5 -14 -9 -5 -9 8 0 24 4 35 9 13 5 14 9 5 9 -8 0
-24 -4 -35 -9z"/>
<path d="M1710 939 c0 -226 1 -241 18 -234 39 15 73 17 87 5 13 -11 15 12 15
196 l-1 209 -53 33 c-30 17 -57 32 -60 32 -3 0 -6 -108 -6 -241z"/>
<path d="M1600 1160 c-13 -8 -12 -10 3 -10 9 0 17 5 17 10 0 12 -1 12 -20 0z"/>
<path d="M1680 1163 c-5 -179 -3 -473 3 -473 4 0 7 108 7 240 0 132 -2 240 -5
240 -3 0 -5 -3 -5 -7z"/>
<path d="M1515 1110 c-13 -6 -15 -9 -5 -9 8 0 22 4 30 9 18 12 2 12 -25 0z"/>
<path d="M1647 1113 c-11 -11 -8 -433 3 -433 6 0 10 80 10 220 0 121 -1 220
-3 220 -2 0 -7 -3 -10 -7z"/>
<path d="M1500 1050 c-18 -12 -2 -12 25 0 13 6 15 9 5 9 -8 0 -22 -4 -30 -9z"/>
<path d="M1190 931 l0 -109 35 -22 c24 -15 35 -29 35 -45 0 -42 12 -84 26 -89
12 -4 14 20 14 142 l0 147 -55 43 -55 43 0 -110z"/>
<path d="M1600 970 c-9 -6 -10 -10 -3 -10 6 0 15 5 18 10 8 12 4 12 -15 0z"/>
<path d="M1520 920 c-8 -5 -10 -10 -5 -10 6 0 17 5 25 10 8 5 11 10 5 10 -5 0
-17 -5 -25 -10z"/>
<path d="M1550 850 c-9 -6 -10 -10 -3 -10 6 0 15 5 18 10 8 12 4 12 -15 0z"/>
<path d="M1090 777 c-26 -16 -35 -29 -35 -50 -1 -23 1 -25 13 -13 11 11 21 12
40 5 14 -5 25 -8 26 -7 1 2 -1 22 -4 45 l-5 43 -35 -23z"/>
<path d="M1372 653 c-37 -38 -47 -48 -20 -24 26 25 50 42 53 39 8 -7 -105
-109 -114 -104 -4 3 -36 -24 -71 -59 -64 -64 -64 -65 -35 -65 24 0 50 20 143
113 l112 112 120 -120 119 -120 10 39 c12 48 0 68 -38 64 -18 -2 -29 3 -37 17
-6 11 -15 19 -21 18 -5 -1 -34 24 -64 55 -39 41 -43 47 -14 22 28 -24 24 -18
-15 23 -30 31 -56 57 -57 57 -2 0 -34 -30 -71 -67z m78 27 c0 -5 -4 -10 -10
-10 -5 0 -10 5 -10 10 0 6 5 10 10 10 6 0 10 -4 10 -10z"/>
<path d="M960 575 c-122 -123 -124 -124 -174 -128 -46 -3 -45 -3 16 -5 l66 -2
106 105 c59 58 110 105 114 105 3 0 35 -28 69 -62 42 -41 66 -59 73 -52 6 6
-16 36 -68 87 l-77 77 -125 -125z"/>
<path d="M1721 626 c-58 -58 -69 -74 -56 -80 12 -4 32 10 69 49 28 30 56 55
62 55 5 0 56 -47 114 -105 l105 -105 70 2 c66 2 67 2 15 5 l-55 4 -125 125
-125 124 -74 -74z"/>
<path d="M1182 624 l68 -68 35 34 c19 19 35 37 35 40 0 3 -38 16 -85 28 -46
12 -93 25 -102 29 -10 3 12 -25 49 -63z"/>
<path d="M1655 662 c-49 -14 -92 -27 -94 -29 -3 -2 12 -20 32 -41 l37 -37 67
68 c37 37 63 66 58 66 -6 -1 -50 -13 -100 -27z"/>
<path d="M1565 590 c10 -11 20 -20 23 -20 3 0 -3 9 -13 20 -10 11 -20 20 -23
20 -3 0 3 -9 13 -20z"/>
<path d="M1780 480 c0 -5 5 -10 11 -10 5 0 7 5 4 10 -3 6 -8 10 -11 10 -2 0
-4 -4 -4 -10z"/>
</g>
</svg>
